<mxfile host="app.diagrams.net" modified="2024-06-29T06:37:10.115Z" agent="Mozilla/5.0 (X11; Linux x86_64) AppleWebKit/537.36 (KHTML, like Gecko) Chrome/123.0.0.0 Safari/537.36" etag="wA8yhIl6RonoKPp003nT" version="24.6.4" type="device">
  <diagram name="Page-1" id="oMprpJH8W9MO-7ze6D4W">
    <mxGraphModel dx="811" dy="454" grid="1" gridSize="10" guides="1" tooltips="1" connect="1" arrows="1" fold="1" page="1" pageScale="1" pageWidth="850" pageHeight="1100" math="0" shadow="0">
      <root>
        <mxCell id="0" />
        <mxCell id="1" parent="0" />
        <mxCell id="wfgLk4-iCL38R_povBnK-1" value="Goal" style="shape=parallelogram;perimeter=parallelogramPerimeter;whiteSpace=wrap;html=1;fixedSize=1;" vertex="1" parent="1">
          <mxGeometry x="280" y="60" width="120" height="60" as="geometry" />
        </mxCell>
        <mxCell id="wfgLk4-iCL38R_povBnK-2" value="Risk" style="shape=parallelogram;perimeter=parallelogramPerimeter;whiteSpace=wrap;html=1;fixedSize=1;flipV=1;" vertex="1" parent="1">
          <mxGeometry x="280" y="160" width="120" height="60" as="geometry" />
        </mxCell>
        <mxCell id="wfgLk4-iCL38R_povBnK-3" value="Goal" style="shape=parallelogram;perimeter=parallelogramPerimeter;whiteSpace=wrap;html=1;fixedSize=1;" vertex="1" parent="1">
          <mxGeometry x="430" y="60" width="120" height="60" as="geometry" />
        </mxCell>
        <mxCell id="wfgLk4-iCL38R_povBnK-4" value="Risk" style="shape=parallelogram;perimeter=parallelogramPerimeter;whiteSpace=wrap;html=1;fixedSize=1;flipV=1;" vertex="1" parent="1">
          <mxGeometry x="420" y="160" width="120" height="60" as="geometry" />
        </mxCell>
        <mxCell id="wfgLk4-iCL38R_povBnK-5" value="" style="group" vertex="1" connectable="0" parent="1">
          <mxGeometry x="471" y="144" width="20" as="geometry" />
        </mxCell>
        <mxCell id="wfgLk4-iCL38R_povBnK-6" style="edgeStyle=elbowEdgeStyle;rounded=0;orthogonalLoop=1;jettySize=auto;html=1;entryX=0.422;entryY=1.022;entryDx=0;entryDy=0;entryPerimeter=0;" edge="1" parent="wfgLk4-iCL38R_povBnK-5" source="wfgLk4-iCL38R_povBnK-4" target="wfgLk4-iCL38R_povBnK-3">
          <mxGeometry relative="1" as="geometry" />
        </mxCell>
        <mxCell id="wfgLk4-iCL38R_povBnK-7" value="" style="endArrow=none;html=1;rounded=0;strokeWidth=2;" edge="1" parent="wfgLk4-iCL38R_povBnK-5">
          <mxGeometry width="50" height="50" relative="1" as="geometry">
            <mxPoint as="sourcePoint" />
            <mxPoint x="20" as="targetPoint" />
          </mxGeometry>
        </mxCell>
        <mxCell id="wfgLk4-iCL38R_povBnK-11" style="edgeStyle=orthogonalEdgeStyle;rounded=0;orthogonalLoop=1;jettySize=auto;html=1;entryX=1;entryY=0.5;entryDx=0;entryDy=0;" edge="1" parent="1" source="wfgLk4-iCL38R_povBnK-10" target="wfgLk4-iCL38R_povBnK-4">
          <mxGeometry relative="1" as="geometry" />
        </mxCell>
        <mxCell id="wfgLk4-iCL38R_povBnK-10" value="&lt;span style=&quot;color: rgb(0, 0, 0); font-family: Vazirmatn; font-size: 12px; font-style: normal; font-variant-ligatures: normal; font-variant-caps: normal; font-weight: 400; letter-spacing: normal; orphans: 2; text-align: center; text-indent: 0px; text-transform: none; widows: 2; word-spacing: 0px; -webkit-text-stroke-width: 0px; white-space: nowrap; background-color: rgb(251, 251, 251); text-decoration-thickness: initial; text-decoration-style: initial; text-decoration-color: initial; display: inline !important; float: none;&quot;&gt;مانعی است برای&lt;/span&gt;" style="ellipse;shape=cloud;whiteSpace=wrap;html=1;fillColor=default;verticalAlign=middle;" vertex="1" parent="1">
          <mxGeometry x="560" y="110" width="120" height="80" as="geometry" />
        </mxCell>
      </root>
    </mxGraphModel>
  </diagram>
</mxfile>
